<mxfile host="app.diagrams.net" modified="2022-09-28T09:46:58.935Z" agent="5.0 (Windows NT 10.0; Win64; x64) AppleWebKit/537.36 (KHTML, like Gecko) Chrome/105.0.0.0 Safari/537.36" etag="OnnFwYDs02sU1EUia7Kx" version="20.3.7" type="github">
  <diagram id="bDQfi-OPkbIuHZecfhuv" name="Page-1">
    <mxGraphModel dx="1422" dy="794" grid="1" gridSize="10" guides="1" tooltips="1" connect="1" arrows="1" fold="1" page="1" pageScale="1" pageWidth="850" pageHeight="1100" math="0" shadow="0">
      <root>
        <mxCell id="0" />
        <mxCell id="1" parent="0" />
        <mxCell id="4ggAbV909_1CB3LYgLCd-10" style="edgeStyle=orthogonalEdgeStyle;curved=1;rounded=0;orthogonalLoop=1;jettySize=auto;html=1;exitX=0.5;exitY=1;exitDx=0;exitDy=0;entryX=0.5;entryY=0;entryDx=0;entryDy=0;" edge="1" parent="1" source="4ggAbV909_1CB3LYgLCd-4" target="4ggAbV909_1CB3LYgLCd-6">
          <mxGeometry relative="1" as="geometry" />
        </mxCell>
        <mxCell id="4ggAbV909_1CB3LYgLCd-4" value="PostType (URL)" style="ellipse;whiteSpace=wrap;html=1;" vertex="1" parent="1">
          <mxGeometry x="368" y="40" width="115" height="70" as="geometry" />
        </mxCell>
        <mxCell id="4ggAbV909_1CB3LYgLCd-12" style="edgeStyle=orthogonalEdgeStyle;curved=1;rounded=0;orthogonalLoop=1;jettySize=auto;html=1;exitX=0.5;exitY=0;exitDx=0;exitDy=0;" edge="1" parent="1" source="4ggAbV909_1CB3LYgLCd-5">
          <mxGeometry relative="1" as="geometry">
            <mxPoint x="420" y="120" as="targetPoint" />
          </mxGeometry>
        </mxCell>
        <mxCell id="4ggAbV909_1CB3LYgLCd-5" value="Post(Tin tức)" style="rounded=0;whiteSpace=wrap;html=1;" vertex="1" parent="1">
          <mxGeometry x="40" y="180" width="120" height="60" as="geometry" />
        </mxCell>
        <mxCell id="4ggAbV909_1CB3LYgLCd-6" value="Post(Dịch vụ)" style="rounded=0;whiteSpace=wrap;html=1;" vertex="1" parent="1">
          <mxGeometry x="230" y="180" width="120" height="60" as="geometry" />
        </mxCell>
        <mxCell id="4ggAbV909_1CB3LYgLCd-11" style="edgeStyle=orthogonalEdgeStyle;curved=1;rounded=0;orthogonalLoop=1;jettySize=auto;html=1;exitX=0.5;exitY=0;exitDx=0;exitDy=0;entryX=0.5;entryY=1;entryDx=0;entryDy=0;" edge="1" parent="1" source="4ggAbV909_1CB3LYgLCd-7" target="4ggAbV909_1CB3LYgLCd-4">
          <mxGeometry relative="1" as="geometry" />
        </mxCell>
        <mxCell id="4ggAbV909_1CB3LYgLCd-7" value="Post(Chính sách)" style="rounded=0;whiteSpace=wrap;html=1;" vertex="1" parent="1">
          <mxGeometry x="510" y="180" width="120" height="60" as="geometry" />
        </mxCell>
        <mxCell id="4ggAbV909_1CB3LYgLCd-13" style="edgeStyle=orthogonalEdgeStyle;curved=1;rounded=0;orthogonalLoop=1;jettySize=auto;html=1;exitX=0.5;exitY=0;exitDx=0;exitDy=0;entryX=0.5;entryY=1;entryDx=0;entryDy=0;" edge="1" parent="1" source="4ggAbV909_1CB3LYgLCd-8" target="4ggAbV909_1CB3LYgLCd-4">
          <mxGeometry relative="1" as="geometry" />
        </mxCell>
        <mxCell id="4ggAbV909_1CB3LYgLCd-8" value="Post(Dự án)" style="rounded=0;whiteSpace=wrap;html=1;" vertex="1" parent="1">
          <mxGeometry x="700" y="180" width="120" height="60" as="geometry" />
        </mxCell>
        <mxCell id="4ggAbV909_1CB3LYgLCd-14" value="SiteMap" style="shape=parallelogram;perimeter=parallelogramPerimeter;whiteSpace=wrap;html=1;fixedSize=1;" vertex="1" parent="1">
          <mxGeometry x="80" y="45" width="120" height="60" as="geometry" />
        </mxCell>
      </root>
    </mxGraphModel>
  </diagram>
</mxfile>
